:FULLY-SPECIFIED
:FORCE-ALL-JOINTS-BE-3DOF
:DEGREES
883
root 3.85195 16.5305 30.5312 -10.8246 23.6768 359.35
lfemur -15.8095 19.9983 -19.0116
ltibia 40.4913 0 0
lfoot -12.9326 0.0690648 0
ltoes -1.37978 0 0
rfemur -80.7132 -24.4467 36.5168
rtibia 101.126 0 0
rfoot 19.264 26.205 0
rtoes -8.14353 0 0
lowerback 15.0059 -4.01209 -6.64789
upperback 4.97444 -6.28636 -2.38034
thorax -2.64296 -3.11384 2.26165
lowerneck -7.71871 -3.24517 1.71638
upperneck 4.65939 -4.84264 4.94114
head 2.93726 -2.18998 1.06474
lclavicle -3.12092e-14 -4.77083e-15 0
lhumerus -33.0312 -40.5423 88.3441
lradius 60.5977 0 0
lwrist 19.6497 0 0
lhand 25.8347 11.8689 0
lfingers 7.12502 0 0
lthumb 49.9264 33.1302 0
rclavicle -3.12092e-14 -4.77083e-15 0
rhumerus -49.2556 -29.6742 -46.9493
rradius 72.2992 0 0
rwrist -23.3678 0 0
rhand -47.7649 -54.4874 0
rfingers 7.12502 0 0
rthumb -20.4424 -803.431 0
884
root 3.83693 16.5213 30.6466 -10.1782 23.8208 359.426
lfemur -16.4597 20.8964 -18.9014
ltibia 41.2928 0 0
lfoot -13.4145 1.24259 0
ltoes -1.88002 0 0
rfemur -79.0285 -24.8682 36.0589
rtibia 101.708 0 0
rfoot 19.0254 24.9813 0
rtoes -5.97344 0 0
lowerback 14.5751 -4.02691 -6.58985
upperback 4.794 -6.28723 -2.42639
thorax -2.59806 -3.11386 2.16918
lowerneck -7.73851 -3.41033 1.51252
upperneck 4.49726 -5.04401 5.02135
head 2.90209 -2.29451 1.1164
lclavicle -3.20596e-14 -2.8172e-15 0
lhumerus -33.7602 -41.2092 89.712
lradius 60.8315 0 0
lwrist 19.1945 0 0
lhand 26.804 12.4098 0
lfingers 7.12502 0 0
lthumb 50.8318 33.3445 0
rclavicle -3.20596e-14 -2.8172e-15 0
rhumerus -49.029 -28.9121 -49.0406
rradius 75.1833 0 0
rwrist -23.7743 0 0
rhand -46.4048 -53.1996 0
rfingers 7.12502 0 0
rthumb -19.1392 -801.979 0
885
root 3.82878 16.5144 30.7473 -9.58851 23.982 359.484
lfemur -17.179 21.7966 -18.867
ltibia 42.2059 0 0
lfoot -13.8572 2.36412 0
ltoes -2.18148 0 0
rfemur -77.1801 -25.1262 35.3681
rtibia 102.082 0 0
rfoot 18.712 23.4751 0
rtoes -3.42466 0 0
lowerback 14.1536 -4.02526 -6.51534
upperback 4.61404 -6.26397 -2.44226
thorax -2.56099 -3.10185 2.09406
lowerneck -7.74696 -3.5935 1.3061
upperneck 4.3664 -5.26898 5.0833
head 2.87586 -2.41086 1.16139
lclavicle -3.24769e-14 -8.97567e-16 0
lhumerus -34.5113 -41.7108 91.0294
lradius 61.0323 0 0
lwrist 18.7466 0 0
lhand 27.5601 12.8461 0
lfingers 7.12502 0 0
lthumb 51.5422 33.5547 0
rclavicle -3.24769e-14 -8.97567e-16 0
rhumerus -48.7668 -28.0201 -51.2702
rradius 77.8951 0 0
rwrist -23.9904 0 0
rhand -44.7945 -51.6812 0
rfingers 7.12502 0 0
rthumb -17.5936 -800.315 0
886
root 3.82646 16.5096 30.8347 -9.0492 24.1533 359.525
lfemur -17.9535 22.688 -18.896
ltibia 43.2072 0 0
lfoot -14.2609 3.42207 0
ltoes -2.2986 0 0
rfemur -75.1788 -25.2304 34.4592
rtibia 102.254 0 0
rfoot 18.3282 21.7134 0
rtoes -0.556021 0 0
lowerback 13.738 -4.00791 -6.42539
upperback 4.43387 -6.21769 -2.43197
thorax -2.53045 -3.07836 2.033
lowerneck -7.74498 -3.79178 1.09806
upperneck 4.26423 -5.51376 5.12869
head 2.85777 -2.53711 1.20026
lclavicle -3.24944e-14 9.82914e-16 0
lhumerus -35.2834 -42.0602 92.2989
lradius 61.2015 0 0
lwrist 18.3071 0 0
lhand 28.1242 13.1893 0
lfingers 7.12502 0 0
lthumb 52.0767 33.7602 0
rclavicle -3.24944e-14 9.82914e-16 0
rhumerus -48.4753 -26.9971 -53.62
rradius 80.448 0 0
rwrist -24.0295 0 0
rhand -42.9497 -49.9518 0
rfingers 7.12502 0 0
rthumb -15.8207 -798.456 0
887
root 3.82894 16.5065 30.9103 -8.5541 24.3273 359.553
lfemur -18.7696 23.5596 -18.976
ltibia 44.2735 0 0
lfoot -14.6259 4.40485 0
ltoes -2.24581 0 0
rfemur -73.0359 -25.19 33.3472
rtibia 102.227 0 0
rfoot 17.8783 19.7232 0
rtoes 2.57365 0 0
lowerback 13.3253 -3.97563 -6.32102
upperback 4.25284 -6.14947 -2.39954
thorax -2.50517 -3.04395 1.9827
lowerneck -7.73347 -4.00225 0.889313
upperneck 4.18816 -5.77457 5.15919
head 2.84697 -2.67137 1.23362
lclavicle -3.21452e-14 2.81909e-15 0
lhumerus -36.0755 -42.2704 93.5231
lradius 61.3408 0 0
lwrist 17.8773 0 0
lhand 28.5177 13.4514 0
lfingers 7.12502 0 0
lthumb 52.4546 33.9606 0
rclavicle -3.21452e-14 2.81909e-15 0
rhumerus -48.161 -25.8418 -56.072
rradius 82.8553 0 0
rwrist -23.9048 0 0
rhand -40.8861 -48.0312 0
rfingers 7.12502 0 0
rthumb -13.8359 -796.418 0
888
root 3.83518 16.5047 30.9755 -8.09703 24.497 359.57
lfemur -19.6131 24.4005 -19.0946
ltibia 45.3813 0 0
lfoot -14.9524 5.30088 0
ltoes -2.03755 0 0
rfemur -70.7622 -25.0145 32.0469
rtibia 102.004 0 0
rfoot 17.3667 17.5316 0
rtoes 5.90554 0 0
lowerback 12.9124 -3.9292 -6.20328
upperback 4.07028 -6.06041 -2.34898
thorax -2.48386 -2.99917 1.93988
lowerneck -7.71333 -4.22199 0.680798
upperneck 4.13561 -6.04763 5.17651
head 2.84263 -2.81173 1.26203
lclavicle -3.14625e-14 4.60581e-15 0
lhumerus -36.8867 -42.3546 94.7049
lradius 61.4517 0 0
lwrist 17.4584 0 0
lhand 28.7621 13.6441 0
lfingers 7.12502 0 0
lthumb 52.6951 34.1552 0
rclavicle -3.14625e-14 4.60581e-15 0
rhumerus -47.83 -24.5533 -58.608
rradius 85.1304 0 0
rwrist -23.6296 0 0
rhand -38.6192 -45.9389 0
rfingers 7.12502 0 0
rthumb -11.6545 -794.22 0
889
root 3.84414 16.5039 31.0319 -7.67177 24.655 359.579
lfemur -20.4704 25.1995 -19.2392
ltibia 46.5075 0 0
lfoot -15.2408 6.09855 0
ltoes -1.68823 0 0
rfemur -68.3689 -24.7134 30.5731
rtibia 101.589 0 0
rfoot 16.7976 15.1656 0
rtoes 9.38082 0 0
lowerback 12.4961 -3.86938 -6.07319
upperback 3.88553 -5.9516 -2.28432
thorax -2.46523 -2.94457 1.90126
lowerneck -7.68545 -4.44809 0.473439
upperneck 4.104 -6.32914 5.18233
head 2.84394 -2.95627 1.28607
lclavicle -3.04794e-14 6.33793e-15 0
lhumerus -37.7157 -42.326 95.8467
lradius 61.5357 0 0
lwrist 17.0514 0 0
lhand 28.8788 13.7791 0
lfingers 7.12502 0 0
lthumb 52.8175 34.3434 0
rclavicle -3.04794e-14 6.33793e-15 0
rhumerus -47.4889 -23.1303 -61.2101
rradius 87.2866 0 0
rwrist -23.2171 0 0
rhand -36.1647 -43.6944 0
rfingers 7.12502 0 0
rthumb -9.29183 -791.878 0
890
root 3.85477 16.5036 31.0808 -7.27214 24.7942 359.584
lfemur -21.3276 25.9458 -19.3975
ltibia 47.6287 0 0
lfoot -15.4911 6.78629 0
ltoes -1.2123 0 0
rfemur -65.8669 -24.2959 28.9407
rtibia 100.986 0 0
rfoot 16.1755 12.6522 0
rtoes 12.9407 0 0
lowerback 12.0733 -3.79696 -5.93178
upperback 3.6979 -5.82413 -2.20957
thorax -2.44801 -2.88072 1.86354
lowerneck -7.65074 -4.67762 0.268167
upperneck 4.09074 -6.61532 5.17835
head 2.85006 -3.1031 1.30634
lclavicle -2.92292e-14 8.01029e-15 0
lhumerus -38.5617 -42.1976 96.9513
lradius 61.5944 0 0
lwrist 16.6576 0 0
lhand 28.8891 13.8682 0
lfingers 7.12502 0 0
lthumb 52.841 34.5246 0
rclavicle -2.92292e-14 8.01029e-15 0
rhumerus -47.144 -21.5718 -63.8602
rradius 89.3373 0 0
rwrist -22.6807 0 0
rhand -33.5383 -41.3175 0
rfingers 7.12502 0 0
rthumb -6.76307 -789.408 0
891
root 3.86604 16.5037 31.1238 -6.89191 24.9074 359.587
lfemur -22.1707 26.6284 -19.557
ltibia 48.7215 0 0
lfoot -15.7037 7.3525 0
ltoes -0.62418 0 0
rfemur -63.2673 -23.7716 27.1646
rtibia 100.198 0 0
rfoot 15.5046 10.0184 0
rtoes 16.5262 0 0
lowerback 11.6409 -3.7127 -5.78009
upperback 3.50675 -5.67909 -2.12876
thorax -2.43091 -2.80815 1.82344
lowerneck -7.61011 -4.90769 0.0659082
upperneck 4.09326 -6.90239 5.16625
head 2.86016 -3.25031 1.3234
lclavicle -2.7745e-14 9.61774e-15 0
lhumerus -39.4236 -41.9827 98.0214
lradius 61.6294 0 0
lwrist 16.2782 0 0
lhand 28.8144 13.9232 0
lfingers 7.12502 0 0
lthumb 52.7849 34.6984 0
rclavicle -2.7745e-14 9.61774e-15 0
rhumerus -46.8016 -19.8766 -66.5402
rradius 91.2959 0 0
rwrist -22.0336 0 0
rhand -30.7556 -38.8277 0
rfingers 7.12502 0 0
rthumb -4.08356 -786.829 0
892
root 3.87692 16.5036 31.1623 -6.52491 24.9872 359.591
lfemur -22.9859 27.2362 -19.7052
ltibia 49.7628 0 0
lfoot -15.8789 7.7856 0
ltoes 0.0616932 0 0
rfemur -60.5812 -23.1499 25.2596
rtibia 99.2302 0 0
rfoot 14.7894 7.29135 0
rtoes 20.0788 0 0
lowerback 11.1958 -3.61738 -5.61915
upperback 3.3114 -5.51757 -2.04589
thorax -2.41265 -2.72743 1.77767
lowerneck -7.56446 -5.13536 -0.132408
upperneck 4.10896 -7.18656 5.14773
head 2.87341 -3.39599 1.33783
lclavicle -2.60599e-14 1.11551e-14 0
lhumerus -40.3003 -41.6942 99.0595
lradius 61.6422 0 0
lwrist 15.9143 0 0
lhand 28.6761 13.9558 0
lfingers 7.12502 0 0
lthumb 52.6685 34.8641 0
rclavicle -2.60599e-14 1.11551e-14 0
rhumerus -46.468 -18.0436 -69.2319
rradius 93.1755 0 0
rwrist -21.289 0 0
rhand -27.8322 -36.2447 0
rfingers 7.12502 0 0
rthumb -1.26858 -784.156 0
893
root 3.88635 16.5031 31.1977 -6.16492 25.0266 359.598
lfemur -23.7594 27.7583 -19.8299
ltibia 50.7291 0 0
lfoot -16.0169 8.074 0
ltoes 0.83089 0 0
rfemur -57.8194 -22.4401 23.2406
rtibia 98.0852 0 0
rfoot 14.0341 4.49799 0
rtoes 23.5394 0 0
lowerback 10.7347 -3.51177 -5.44998
upperback 3.11118 -5.34067 -1.96498
thorax -2.39194 -2.63911 1.72293
lowerneck -7.51468 -5.35772 -0.325854
upperneck 4.13527 -7.46405 5.12448
head 2.88899 -3.53823 1.35022
lclavicle -2.42072e-14 1.26173e-14 0
lhumerus -41.1909 -41.3453 100.068
lradius 61.6344 0 0
lwrist 15.567 0 0
lhand 28.4956 13.9778 0
lfingers 7.12502 0 0
lthumb 52.5108 35.0212 0
rclavicle -2.42072e-14 1.26173e-14 0
rhumerus -46.1497 -16.0717 -71.9175
rradius 94.9897 0 0
rwrist -20.4602 0 0
rhand -24.7839 -33.588 0
rfingers 7.12502 0 0
rthumb 1.66658 -781.408 0
894
root 3.89331 16.5018 31.2314 -5.80574 25.0183 359.613
lfemur -24.4773 28.1837 -19.9185
ltibia 51.5971 0 0
lfoot -16.1179 8.2061 0
ltoes 1.66898 0 0
rfemur -54.9932 -21.6517 21.1225
rtibia 96.7671 0 0
rfoot 13.2431 1.66537 0
rtoes 26.8492 0 0
lowerback 10.2547 -3.39664 -5.27363
upperback 2.90543 -5.14948 -1.89007
thorax -2.36751 -2.54374 1.65596
lowerneck -7.46167 -5.57187 -0.513501
upperneck 4.16961 -7.73106 5.0982
head 2.90607 -3.67514 1.36115
lclavicle -2.222e-14 1.39991e-14 0
lhumerus -42.0943 -40.9492 101.051
lradius 61.6075 0 0
lwrist 15.2376 0 0
lhand 28.2942 14.001 0
lfingers 7.12502 0 0
lthumb 52.3313 35.169 0
rclavicle -2.222e-14 1.39991e-14 0
rhumerus -45.853 -13.9598 -74.5787
rradius 96.7517 0 0
rwrist -19.5606 0 0
rhand -21.6263 -30.8773 0
rfingers 7.12502 0 0
rthumb 4.70663 -778.601 0
895
root 3.89675 16.4994 31.2651 -5.44117 24.955 359.637
lfemur -25.1257 28.5014 -19.9585
ltibia 52.3437 0 0
lfoot -16.1822 8.17032 0
ltoes 2.56153 0 0
rfemur -52.1135 -20.7942 18.92
rtibia 95.2794 0 0
rfoot 12.4208 -1.17946 0
rtoes 29.9496 0 0
lowerback 9.75246 -3.27278 -5.09112
upperback 2.69348 -4.94509 -1.82515
thorax -2.33806 -2.44189 1.57344
lowerneck -7.40635 -5.77487 -0.69442
upperneck 4.20938 -7.98382 5.07056
head 2.92381 -3.80479 1.37119
lclavicle -2.01314e-14 1.52954e-14 0
lhumerus -43.0095 -40.519 102.009
lradius 61.5631 0 0
lwrist 14.9272 0 0
lhand 28.0935 14.0371 0
lfingers 7.12502 0 0
lthumb 52.1491 35.307 0
rclavicle -2.01314e-14 1.52954e-14 0
rhumerus -45.5842 -11.7066 -77.1976
rradius 98.4749 0 0
rwrist -18.6033 0 0
rhand -18.375 -28.1321 0
rfingers 7.12502 0 0
rthumb 7.83628 -775.753 0
